<svg width="65" height="16" viewBox="0 0 65 16" fill="none" xmlns="http://www.w3.org/2000/svg">
<path d="M6.02344 9.75781C6.02344 9.54948 5.97656 9.35677 5.88281 9.17969C5.79427 8.9974 5.60938 8.83333 5.32812 8.6875C5.05208 8.53646 4.63542 8.40625 4.07812 8.29688C3.60938 8.19792 3.1849 8.08073 2.80469 7.94531C2.42969 7.8099 2.10938 7.64583 1.84375 7.45312C1.58333 7.26042 1.38281 7.03385 1.24219 6.77344C1.10156 6.51302 1.03125 6.20833 1.03125 5.85938C1.03125 5.52604 1.10417 5.21094 1.25 4.91406C1.40104 4.61719 1.61198 4.35417 1.88281 4.125C2.15885 3.89583 2.48958 3.71615 2.875 3.58594C3.26042 3.45573 3.6901 3.39062 4.16406 3.39062C4.84115 3.39062 5.41927 3.51042 5.89844 3.75C6.3776 3.98958 6.74479 4.3099 7 4.71094C7.25521 5.10677 7.38281 5.54688 7.38281 6.03125H5.9375C5.9375 5.79688 5.86719 5.57031 5.72656 5.35156C5.59115 5.1276 5.39062 4.94271 5.125 4.79688C4.86458 4.65104 4.54427 4.57812 4.16406 4.57812C3.76302 4.57812 3.4375 4.64062 3.1875 4.76562C2.94271 4.88542 2.76302 5.03906 2.64844 5.22656C2.53906 5.41406 2.48438 5.61198 2.48438 5.82031C2.48438 5.97656 2.51042 6.11719 2.5625 6.24219C2.61979 6.36198 2.71875 6.47396 2.85938 6.57812C3 6.67708 3.19792 6.77083 3.45312 6.85938C3.70833 6.94792 4.03385 7.03646 4.42969 7.125C5.1224 7.28125 5.69271 7.46875 6.14062 7.6875C6.58854 7.90625 6.92188 8.17448 7.14062 8.49219C7.35938 8.8099 7.46875 9.19531 7.46875 9.64844C7.46875 10.0182 7.39062 10.3568 7.23438 10.6641C7.08333 10.9714 6.86198 11.237 6.57031 11.4609C6.28385 11.6797 5.9401 11.8516 5.53906 11.9766C5.14323 12.0964 4.69792 12.1562 4.20312 12.1562C3.45833 12.1562 2.82812 12.0234 2.3125 11.7578C1.79688 11.4922 1.40625 11.1484 1.14062 10.7266C0.875 10.3047 0.742188 9.85938 0.742188 9.39062H2.19531C2.21615 9.78646 2.33073 10.1016 2.53906 10.3359C2.7474 10.5651 3.0026 10.7292 3.30469 10.8281C3.60677 10.9219 3.90625 10.9688 4.20312 10.9688C4.59896 10.9688 4.92969 10.9167 5.19531 10.8125C5.46615 10.7083 5.67188 10.5651 5.8125 10.3828C5.95312 10.2005 6.02344 9.99219 6.02344 9.75781ZM10.8203 0V12H9.36719V0H10.8203ZM15.9844 3.54688L12.2969 7.49219L10.2344 9.63281L10.1172 8.09375L11.5938 6.32812L14.2188 3.54688H15.9844ZM14.6641 12L11.6484 7.96875L12.3984 6.67969L16.3672 12H14.6641ZM19.8516 11.125L22.2031 3.54688H23.75L20.3594 13.3047C20.2812 13.513 20.1771 13.737 20.0469 13.9766C19.9219 14.2214 19.7604 14.4531 19.5625 14.6719C19.3646 14.8906 19.125 15.0677 18.8438 15.2031C18.5677 15.3438 18.237 15.4141 17.8516 15.4141C17.737 15.4141 17.5911 15.3984 17.4141 15.3672C17.237 15.3359 17.112 15.3099 17.0391 15.2891L17.0312 14.1172C17.0729 14.1224 17.138 14.1276 17.2266 14.1328C17.3203 14.1432 17.3854 14.1484 17.4219 14.1484C17.75 14.1484 18.0286 14.1042 18.2578 14.0156C18.487 13.9323 18.6797 13.7891 18.8359 13.5859C18.9974 13.388 19.1354 13.1146 19.25 12.7656L19.8516 11.125ZM18.125 3.54688L20.3203 10.1094L20.6953 11.6328L19.6562 12.1641L16.5469 3.54688H18.125ZM24.2344 11.2344C24.2344 10.9896 24.3099 10.7839 24.4609 10.6172C24.6172 10.4453 24.8411 10.3594 25.1328 10.3594C25.4245 10.3594 25.6458 10.4453 25.7969 10.6172C25.9531 10.7839 26.0312 10.9896 26.0312 11.2344C26.0312 11.474 25.9531 11.6771 25.7969 11.8438C25.6458 12.0104 25.4245 12.0938 25.1328 12.0938C24.8411 12.0938 24.6172 12.0104 24.4609 11.8438C24.3099 11.6771 24.2344 11.474 24.2344 11.2344ZM29.875 5.35156V12H28.4297V3.54688H29.7969L29.875 5.35156ZM29.5312 7.45312L28.9297 7.42969C28.9349 6.85156 29.0208 6.31771 29.1875 5.82812C29.3542 5.33333 29.5885 4.90365 29.8906 4.53906C30.1927 4.17448 30.5521 3.89323 30.9688 3.69531C31.3906 3.49219 31.8568 3.39062 32.3672 3.39062C32.7839 3.39062 33.1589 3.44792 33.4922 3.5625C33.8255 3.67188 34.1094 3.84896 34.3438 4.09375C34.5833 4.33854 34.7656 4.65625 34.8906 5.04688C35.0156 5.43229 35.0781 5.90365 35.0781 6.46094V12H33.625V6.44531C33.625 6.0026 33.5599 5.64844 33.4297 5.38281C33.2995 5.11198 33.1094 4.91667 32.8594 4.79688C32.6094 4.67188 32.3021 4.60938 31.9375 4.60938C31.5781 4.60938 31.25 4.6849 30.9531 4.83594C30.6615 4.98698 30.4089 5.19531 30.1953 5.46094C29.987 5.72656 29.8229 6.03125 29.7031 6.375C29.5885 6.71354 29.5312 7.07292 29.5312 7.45312ZM40.7812 12.1562C40.1927 12.1562 39.6589 12.0573 39.1797 11.8594C38.7057 11.6562 38.2969 11.3724 37.9531 11.0078C37.6146 10.6432 37.3542 10.2109 37.1719 9.71094C36.9896 9.21094 36.8984 8.66406 36.8984 8.07031V7.74219C36.8984 7.05469 37 6.44271 37.2031 5.90625C37.4062 5.36458 37.6823 4.90625 38.0312 4.53125C38.3802 4.15625 38.776 3.8724 39.2188 3.67969C39.6615 3.48698 40.1198 3.39062 40.5938 3.39062C41.1979 3.39062 41.7188 3.49479 42.1562 3.70312C42.599 3.91146 42.9609 4.20312 43.2422 4.57812C43.5234 4.94792 43.7318 5.38542 43.8672 5.89062C44.0026 6.39062 44.0703 6.9375 44.0703 7.53125V8.17969H37.7578V7H42.625V6.89062C42.6042 6.51562 42.526 6.15104 42.3906 5.79688C42.2604 5.44271 42.0521 5.15104 41.7656 4.92188C41.4792 4.69271 41.0885 4.57812 40.5938 4.57812C40.2656 4.57812 39.9635 4.64844 39.6875 4.78906C39.4115 4.92448 39.1745 5.1276 38.9766 5.39844C38.7786 5.66927 38.625 6 38.5156 6.39062C38.4062 6.78125 38.3516 7.23177 38.3516 7.74219V8.07031C38.3516 8.47135 38.4062 8.84896 38.5156 9.20312C38.6302 9.55208 38.7943 9.85938 39.0078 10.125C39.2266 10.3906 39.4896 10.599 39.7969 10.75C40.1094 10.901 40.4635 10.9766 40.8594 10.9766C41.3698 10.9766 41.8021 10.8724 42.1562 10.6641C42.5104 10.4557 42.8203 10.1771 43.0859 9.82812L43.9609 10.5234C43.7786 10.7995 43.5469 11.0625 43.2656 11.3125C42.9844 11.5625 42.638 11.7656 42.2266 11.9219C41.8203 12.0781 41.3385 12.1562 40.7812 12.1562ZM47.8984 10.5L50.0703 3.54688H51.0234L50.8359 4.92969L48.625 12H47.6953L47.8984 10.5ZM46.4375 3.54688L48.2891 10.5781L48.4219 12H47.4453L44.9922 3.54688H46.4375ZM53.1016 10.5234L54.8672 3.54688H56.3047L53.8516 12H52.8828L53.1016 10.5234ZM51.2344 3.54688L53.3594 10.3828L53.6016 12H52.6797L50.4062 4.91406L50.2188 3.54688H51.2344ZM62.7109 9.75781C62.7109 9.54948 62.6641 9.35677 62.5703 9.17969C62.4818 8.9974 62.2969 8.83333 62.0156 8.6875C61.7396 8.53646 61.3229 8.40625 60.7656 8.29688C60.2969 8.19792 59.8724 8.08073 59.4922 7.94531C59.1172 7.8099 58.7969 7.64583 58.5312 7.45312C58.2708 7.26042 58.0703 7.03385 57.9297 6.77344C57.7891 6.51302 57.7188 6.20833 57.7188 5.85938C57.7188 5.52604 57.7917 5.21094 57.9375 4.91406C58.0885 4.61719 58.2995 4.35417 58.5703 4.125C58.8464 3.89583 59.1771 3.71615 59.5625 3.58594C59.9479 3.45573 60.3776 3.39062 60.8516 3.39062C61.5286 3.39062 62.1068 3.51042 62.5859 3.75C63.0651 3.98958 63.4323 4.3099 63.6875 4.71094C63.9427 5.10677 64.0703 5.54688 64.0703 6.03125H62.625C62.625 5.79688 62.5547 5.57031 62.4141 5.35156C62.2786 5.1276 62.0781 4.94271 61.8125 4.79688C61.5521 4.65104 61.2318 4.57812 60.8516 4.57812C60.4505 4.57812 60.125 4.64062 59.875 4.76562C59.6302 4.88542 59.4505 5.03906 59.3359 5.22656C59.2266 5.41406 59.1719 5.61198 59.1719 5.82031C59.1719 5.97656 59.1979 6.11719 59.25 6.24219C59.3073 6.36198 59.4062 6.47396 59.5469 6.57812C59.6875 6.67708 59.8854 6.77083 60.1406 6.85938C60.3958 6.94792 60.7214 7.03646 61.1172 7.125C61.8099 7.28125 62.3802 7.46875 62.8281 7.6875C63.276 7.90625 63.6094 8.17448 63.8281 8.49219C64.0469 8.8099 64.1562 9.19531 64.1562 9.64844C64.1562 10.0182 64.0781 10.3568 63.9219 10.6641C63.7708 10.9714 63.5495 11.237 63.2578 11.4609C62.9714 11.6797 62.6276 11.8516 62.2266 11.9766C61.8307 12.0964 61.3854 12.1562 60.8906 12.1562C60.1458 12.1562 59.5156 12.0234 59 11.7578C58.4844 11.4922 58.0938 11.1484 57.8281 10.7266C57.5625 10.3047 57.4297 9.85938 57.4297 9.39062H58.8828C58.9036 9.78646 59.0182 10.1016 59.2266 10.3359C59.4349 10.5651 59.6901 10.7292 59.9922 10.8281C60.2943 10.9219 60.5938 10.9688 60.8906 10.9688C61.2865 10.9688 61.6172 10.9167 61.8828 10.8125C62.1536 10.7083 62.3594 10.5651 62.5 10.3828C62.6406 10.2005 62.7109 9.99219 62.7109 9.75781Z" fill="#FFFBFB"/>
</svg>
